<?xml version="1.0" encoding="utf-8"?>
<!-- Generator: Adobe Illustrator 18.0.0, SVG Export Plug-In . SVG Version: 6.00 Build 0)  -->
<!DOCTYPE svg PUBLIC "-//W3C//DTD SVG 1.1//EN" "http://www.w3.org/Graphics/SVG/1.1/DTD/svg11.dtd">
<svg version="1.1" id="Layer_1" xmlns:sketch="http://www.bohemiancoding.com/sketch/ns"
	 xmlns="http://www.w3.org/2000/svg" xmlns:xlink="http://www.w3.org/1999/xlink" x="0px" y="0px" width="57px" height="57px"
	 viewBox="0 0 57 57" enable-background="new 0 0 57 57" xml:space="preserve">
<title>Facebook + Shape</title>
<desc>Created with Sketch.</desc>
<g id="Page-1" sketch:type="MSPage">
	<g id="Home" transform="translate(-994.000000, -1991.000000)" sketch:type="MSArtboardGroup">
		<g id="FOOTER" transform="translate(-5.000000, 1865.000000)" sketch:type="MSLayerGroup">
			<g id="Conversations" transform="translate(918.000000, 76.000000)" sketch:type="MSShapeGroup">
				<g id="social-icons" transform="translate(0.000000, 50.000000)">
					<g id="Facebook-_x2B_-Shape" transform="translate(81.000000, 0.000000)">
						<path id="Shape" fill="#FFFFFF" d="M28.5,55L28.5,55C43.1,55,55,43.1,55,28.5S43.1,2,28.5,2S2,13.9,2,28.5S13.9,55,28.5,55
							L28.5,55z M28.5,57L28.5,57C12.8,57,0,44.2,0,28.5S12.8,0,28.5,0S57,12.8,57,28.5S44.2,57,28.5,57L28.5,57z"/>
					</g>
				</g>
			</g>
		</g>
	</g>
</g>
<g>
	<path fill="#FFFFFF" d="M39.6,36.2c0,0-0.3,0.4-0.7,0.5c-0.4,0.1-20.8,0-20.8,0s-0.4-0.1-0.6-0.4c-0.1-0.3,9.4-9,9.4-9l1.6,1.1
		l1.5-1.1L39.6,36.2z M17.5,20.8l-0.1,14.7l9-8.8L17.5,20.8z M39.5,35.5l-0.1-14.6l-8.5,5.9L39.5,35.5z M38.9,20.3H18l10.7,7
		L38.9,20.3z"/>
</g>
</svg>
