<?xml version="1.0" encoding="UTF-8" standalone="no"?>
<svg width="57px" height="57px" viewBox="0 0 57 57" version="1.1" xmlns="http://www.w3.org/2000/svg" xmlns:xlink="http://www.w3.org/1999/xlink" xmlns:sketch="http://www.bohemiancoding.com/sketch/ns">
    <!-- Generator: Sketch 3.3.3 (12081) - http://www.bohemiancoding.com/sketch -->
    <title>YouTube + Shape</title>
    <desc>Created with Sketch.</desc>
    <defs></defs>
    <g id="Page-1" stroke="none" stroke-width="1" fill="none" fill-rule="evenodd" sketch:type="MSPage">
        <g id="Home" sketch:type="MSArtboardGroup" transform="translate(-1075.000000, -1991.000000)" fill="#FFFFFF">
            <g id="FOOTER" sketch:type="MSLayerGroup" transform="translate(-5.000000, 1865.000000)">
                <g id="Conversations" transform="translate(918.000000, 76.000000)" sketch:type="MSShapeGroup">
                    <g id="social-icons" transform="translate(0.000000, 50.000000)">
                        <g id="YouTube-+-Shape" transform="translate(162.000000, 0.000000)">
                            <path d="M40.873569,33.2771082 C40.873569,31.2519166 40.873569,29.1219736 40.419647,27.1666162 C40.105393,25.7873908 38.970587,24.774795 37.626279,24.617668 C34.413906,24.2684971 31.166616,24.2684971 27.936785,24.2684971 C24.706953,24.2684971 21.459663,24.2684971 18.264749,24.617668 C16.902982,24.774795 15.785635,25.7873908 15.453922,27.1666162 C15.017459,29.1219736 15,31.2519166 15,33.2771082 C15,35.2848413 15,37.4322428 15.453922,39.3876003 C15.768176,40.7668257 16.902982,41.7794215 18.24729,41.9190899 C21.459663,42.2857194 24.706953,42.2857194 27.936785,42.2857194 C31.166616,42.2857194 34.413906,42.2857194 37.626279,41.9190899 C38.970587,41.7794215 40.087935,40.7668257 40.419647,39.3876003 C40.856111,37.4322428 40.873569,35.2848413 40.873569,33.2771082 L40.873569,33.2771082 Z M20.516901,28.9299296 L20.516901,38.8638438 L18.771047,38.8638438 L18.771047,28.9299296 L16.937899,28.9299296 L16.937899,27.288826 L22.384966,27.288826 L22.384966,28.9299296 L20.516901,28.9299296 L20.516901,28.9299296 Z M25.544963,38.8638438 L25.544963,37.9210822 C24.916456,38.6368827 24.322865,38.9860537 23.764191,38.9860537 C23.257894,38.9860537 22.891264,38.7765511 22.751596,38.3400874 C22.664303,38.0782091 22.611927,37.6766625 22.611927,37.0656133 L22.611927,30.2393207 L24.165738,30.2393207 L24.165738,36.5942325 C24.165738,36.960862 24.165738,37.1529061 24.183197,37.2052817 C24.218114,37.4497014 24.340324,37.5719112 24.549826,37.5719112 C24.86408,37.5719112 25.195792,37.3274915 25.544963,36.8386522 L25.544963,30.2393207 L27.098774,30.2393207 L27.098774,38.8638438 L25.544963,38.8638438 L25.544963,38.8638438 Z M33.034681,36.2799786 C33.034681,37.0830719 32.999764,37.659204 32.877554,38.0258335 C32.68551,38.6543413 32.249046,38.9860537 31.637997,38.9860537 C31.079323,38.9860537 30.538108,38.6717998 30.014352,38.0258335 L30.014352,38.8638438 L28.460541,38.8638438 L28.460541,27.288826 L30.014352,27.288826 L30.014352,31.0773311 C30.52065,30.4488233 31.061865,30.1345695 31.637997,30.1345695 C32.249046,30.1345695 32.68551,30.4662819 32.877554,31.1122482 C32.999764,31.4614192 33.034681,32.0375513 33.034681,32.8406445 L33.034681,36.2799786 L33.034681,36.2799786 Z M31.48087,32.7184347 C31.48087,31.9502585 31.253909,31.5487119 30.799987,31.5487119 C30.538108,31.5487119 30.27623,31.6709217 30.014352,31.9328 L30.014352,37.1878232 C30.27623,37.4497014 30.538108,37.5719112 30.799987,37.5719112 C31.253909,37.5719112 31.48087,37.1878232 31.48087,36.4021885 L31.48087,32.7184347 L31.48087,32.7184347 Z M38.93567,36.1053931 C38.93567,36.611691 38.93567,36.960862 38.900753,37.117989 C38.865836,37.4671599 38.726168,37.7814138 38.534124,38.0607506 C38.115119,38.6717998 37.469152,38.9860537 36.6486,38.9860537 C35.828049,38.9860537 35.216999,38.6892583 34.763077,38.0956677 C34.431365,37.6766625 34.256779,36.9957791 34.256779,36.070476 L34.256779,33.0501471 C34.256779,32.124844 34.413906,31.4614192 34.745619,31.0249554 C35.199541,30.4313648 35.81059,30.1345695 36.613683,30.1345695 C37.399318,30.1345695 38.010367,30.4313648 38.46429,31.0249554 C38.778543,31.4614192 38.93567,32.124844 38.93567,33.0501471 L38.93567,34.8483776 L35.81059,34.8483776 L35.81059,36.3672714 C35.81059,37.1703646 36.072468,37.5719112 36.613683,37.5719112 C36.997771,37.5719112 37.224733,37.3624086 37.312025,36.9434035 C37.329484,36.8561107 37.346942,36.5069398 37.346942,35.878432 L38.93567,35.878432 L38.93567,36.1053931 L38.93567,36.1053931 Z M37.38186,32.7358932 C37.38186,31.9502585 37.119981,31.5487119 36.596225,31.5487119 C36.072468,31.5487119 35.81059,31.9502585 35.81059,32.7358932 L35.81059,33.5389865 L37.38186,33.5389865 L37.38186,32.7358932 L37.38186,32.7358932 Z M23.449938,11 L22.262756,15.5915983 L21.023199,11 L19.172593,11 C19.539223,12.08243 19.923311,13.1823186 20.307399,14.2647486 C20.866072,15.8883937 21.215243,17.1104921 21.37237,17.965961 L21.37237,22.6972277 L23.118225,22.6972277 L23.118225,17.965961 L25.23071,11 L23.449938,11 L23.449938,11 Z M29.909601,16.8136967 C29.909601,15.8883937 29.752474,15.2075103 29.420761,14.7710465 C28.984298,14.1774559 28.373248,13.8806605 27.570155,13.8806605 C26.78452,13.8806605 26.173471,14.1774559 25.737007,14.7710465 C25.405295,15.2075103 25.248168,15.8883937 25.248168,16.8136967 L25.248168,19.8689428 C25.248168,20.7942459 25.405295,21.4751293 25.737007,21.9290515 C26.173471,22.5226422 26.78452,22.8194375 27.570155,22.8194375 C28.373248,22.8194375 28.984298,22.5226422 29.420761,21.9290515 C29.752474,21.4925878 29.909601,20.7942459 29.909601,19.8689428 L29.909601,16.8136967 L29.909601,16.8136967 Z M28.320873,20.1657381 C28.320873,20.9688314 28.093912,21.3878365 27.570155,21.3878365 C27.063857,21.3878365 26.819438,20.9688314 26.819438,20.1657381 L26.819438,16.4994429 C26.819438,15.6963496 27.063857,15.294803 27.570155,15.294803 C28.093912,15.294803 28.320873,15.6963496 28.320873,16.4994429 L28.320873,20.1657381 L28.320873,20.1657381 Z M35.758214,13.9854118 L34.169487,13.9854118 L34.169487,20.6371189 C33.820316,21.1434168 33.488603,21.3878365 33.174349,21.3878365 C32.964847,21.3878365 32.842637,21.2481681 32.80772,21.0037484 C32.790261,20.9688314 32.790261,20.7593288 32.790261,20.3926992 L32.790261,13.9854118 L31.201533,13.9854118 L31.201533,20.8640801 C31.201533,21.4925878 31.253909,21.911593 31.341202,22.1734712 C31.498329,22.6099349 31.864958,22.8194375 32.371256,22.8194375 C32.947388,22.8194375 33.540979,22.4702665 34.169487,21.7370075 L34.169487,22.6972277 L35.758214,22.6972277 L35.758214,13.9854118 L35.758214,13.9854118 Z" id="YouTube"></path>
                            <path d="M28.5,55 L28.5,55 C43.1355459,55 55,43.1355459 55,28.5 C55,13.8644541 43.1355459,2 28.5,2 C13.8644541,2 2,13.8644541 2,28.5 C2,43.1355459 13.8644541,55 28.5,55 L28.5,55 Z M28.5,57 L28.5,57 C12.7598846,57 0,44.2401154 0,28.5 C0,12.7598846 12.7598846,0 28.5,0 C44.2401154,0 57,12.7598846 57,28.5 C57,44.2401154 44.2401154,57 28.5,57 L28.5,57 Z" id="Shape"></path>
                        </g>
                    </g>
                </g>
            </g>
        </g>
    </g>
</svg>