<?xml version="1.0" encoding="UTF-8" standalone="no"?>
<svg width="135px" height="135px" viewBox="0 0 135 135" version="1.1" xmlns="http://www.w3.org/2000/svg" xmlns:xlink="http://www.w3.org/1999/xlink" xmlns:sketch="http://www.bohemiancoding.com/sketch/ns">
    <!-- Generator: Sketch 3.3.3 (12081) - http://www.bohemiancoding.com/sketch -->
    <title> + Shape</title>
    <desc>Created with Sketch.</desc>
    <defs></defs>
    <g id="Page-1" stroke="none" stroke-width="1" fill="none" fill-rule="evenodd" sketch:type="MSPage">
        <g id="Home" sketch:type="MSArtboardGroup" transform="translate(-668.000000, -281.000000)" fill="#FFFFFF">
            <g id="HERO" sketch:type="MSLayerGroup" transform="translate(0.000000, 73.000000)">
                <g id="Code" transform="translate(653.000000, 208.000000)" sketch:type="MSShapeGroup">
                    <g id="code-icon" transform="translate(15.000000, 0.000000)">
                        <g id="-+-Shape">
                            <path d="M55.406273,82.7187449 C55.8125235,82.3124944 55.8125235,81.6874937 55.406273,81.2812432 L43.1250083,68.9999785 L55.406273,56.7187139 C55.8125235,56.3124634 55.8125235,55.6874627 55.406273,55.2812122 L53.8437711,53.7187103 C53.4375206,53.3124598 52.8125199,53.3124598 52.4062694,53.7187103 L37.843752,68.2812277 C37.4375016,68.6874782 37.4375016,69.3124789 37.843752,69.7187294 L52.4062694,84.2812468 C52.8125199,84.6874972 53.4375206,84.6874972 53.8437711,84.2812468 L55.406273,82.7187449 Z M73.875045,49.3749551 C74.0312952,48.8437045 73.7187948,48.2812038 73.1875442,48.1249537 L71.2500419,47.593703 C70.7500413,47.4374528 70.1875406,47.7499532 70.0312904,48.2812038 L58.3750265,88.6250019 C58.2187763,89.1562526 58.5312767,89.7187532 59.0625273,89.8750034 L61.0000297,90.4062541 C61.5000302,90.5625042 62.0625309,90.2500039 62.2187811,89.7187532 L73.875045,49.3749551 Z M95.4063195,69.7187294 C95.81257,69.3124789 95.81257,68.6874782 95.4063195,68.2812277 L80.8438021,53.7187103 C80.4375516,53.3124598 79.8125509,53.3124598 79.4063004,53.7187103 L77.8437985,55.2812122 C77.4375481,55.6874627 77.4375481,56.3124634 77.8437985,56.7187139 L90.1250632,68.9999785 L77.8437985,81.2812432 C77.4375481,81.6874937 77.4375481,82.3124944 77.8437985,82.7187449 L79.4063004,84.2812468 C79.8125509,84.6874972 80.4375516,84.6874972 80.8438021,84.2812468 L95.4063195,69.7187294 Z" id="" stroke="#FFFFFF" stroke-linecap="round" stroke-linejoin="round"></path>
                            <path d="M67.5,132 L67.5,132 C103.122366,132 132,103.122366 132,67.5 C132,31.8776336 103.122366,3 67.5,3 C31.8776336,3 3,31.8776336 3,67.5 C3,103.122366 31.8776336,132 67.5,132 L67.5,132 Z M67.5,135 L67.5,135 C30.2207794,135 0,104.779221 0,67.5 C0,30.2207794 30.2207794,0 67.5,0 C104.779221,0 135,30.2207794 135,67.5 C135,104.779221 104.779221,135 67.5,135 L67.5,135 Z" id="Shape"></path>
                        </g>
                    </g>
                </g>
            </g>
        </g>
    </g>
</svg>