<?xml version="1.0" encoding="UTF-8" standalone="no"?>
<svg width="57px" height="57px" viewBox="0 0 57 57" version="1.1" xmlns="http://www.w3.org/2000/svg" xmlns:xlink="http://www.w3.org/1999/xlink" xmlns:sketch="http://www.bohemiancoding.com/sketch/ns">
    <!-- Generator: Sketch 3.3.3 (12081) - http://www.bohemiancoding.com/sketch -->
    <title>Shape + Twitter</title>
    <desc>Created with Sketch.</desc>
    <defs></defs>
    <g id="Page-1" stroke="none" stroke-width="1" fill="none" fill-rule="evenodd" sketch:type="MSPage">
        <g id="Home" sketch:type="MSArtboardGroup" transform="translate(-913.000000, -1991.000000)" fill="#FFFFFF">
            <g id="FOOTER" sketch:type="MSLayerGroup" transform="translate(-5.000000, 1865.000000)">
                <g id="Conversations" transform="translate(918.000000, 76.000000)" sketch:type="MSShapeGroup">
                    <g id="social-icons" transform="translate(0.000000, 50.000000)">
                        <g id="Shape-+-Twitter">
                            <path d="M28.5,55 L28.5,55 C43.1355459,55 55,43.1355459 55,28.5 C55,13.8644541 43.1355459,2 28.5,2 C13.8644541,2 2,13.8644541 2,28.5 C2,43.1355459 13.8644541,55 28.5,55 L28.5,55 Z M28.5,57 L28.5,57 C12.7598846,57 0,44.2401154 0,28.5 C0,12.7598846 12.7598846,0 28.5,0 C44.2401154,0 57,12.7598846 57,28.5 C57,44.2401154 44.2401154,57 28.5,57 L28.5,57 Z" id="Shape"></path>
                            <path d="M40.625,22.375 C39.719,22.766 38.734,23.047 37.719,23.156 C38.766,22.531 39.563,21.547 39.938,20.375 C38.969,20.953 37.876,21.375 36.735,21.594 C35.813,20.609 34.501,20 33.047,20 C30.25,20 28,22.266 28,25.047 C28,25.438 28.047,25.828 28.125,26.203 C23.937,25.984 20.203,23.984 17.719,20.922 C17.281,21.672 17.031,22.531 17.031,23.469 C17.031,25.219 17.922,26.766 19.281,27.672 C18.453,27.641 17.672,27.406 17,27.031 L17,27.093 C17,29.546 18.734,31.577 21.047,32.046 C20.625,32.155 20.172,32.218 19.719,32.218 C19.391,32.218 19.078,32.187 18.766,32.14 C19.407,34.14 21.266,35.593 23.485,35.64 C21.751,36.999 19.579,37.796 17.219,37.796 C16.797,37.796 16.407,37.78 16,37.734 C18.235,39.172 20.891,40 23.751,40 C33.032,40 38.11,32.312 38.11,25.641 C38.11,25.422 38.11,25.203 38.094,24.985 C39.079,24.266 39.938,23.375 40.625,22.375 L40.625,22.375 L40.625,22.375 Z" id="Twitter"></path>
                        </g>
                    </g>
                </g>
            </g>
        </g>
    </g>
</svg>