<?xml version="1.0" encoding="UTF-8" standalone="no"?>
<svg width="57px" height="57px" viewBox="0 0 57 57" version="1.1" xmlns="http://www.w3.org/2000/svg" xmlns:xlink="http://www.w3.org/1999/xlink" xmlns:sketch="http://www.bohemiancoding.com/sketch/ns">
    <!-- Generator: Sketch 3.3.3 (12081) - http://www.bohemiancoding.com/sketch -->
    <title>Facebook + Shape</title>
    <desc>Created with Sketch.</desc>
    <defs></defs>
    <g id="Page-1" stroke="none" stroke-width="1" fill="none" fill-rule="evenodd" sketch:type="MSPage">
        <g id="Home" sketch:type="MSArtboardGroup" transform="translate(-994.000000, -1991.000000)" fill="#FFFFFF">
            <g id="FOOTER" sketch:type="MSLayerGroup" transform="translate(-5.000000, 1865.000000)">
                <g id="Conversations" transform="translate(918.000000, 76.000000)" sketch:type="MSShapeGroup">
                    <g id="social-icons" transform="translate(0.000000, 50.000000)">
                        <g id="Facebook-+-Shape" transform="translate(81.000000, 0.000000)">
                            <path d="M34.611,15.188 C34.186,15.125 32.719,15 31.019,15 C27.459,15 25.019,17.174 25.019,21.158 L25.019,24.591 L21,24.591 L21,29.255 L25.019,29.255 L25.019,41.212 L29.838,41.212 L29.838,29.257 L33.84,29.257 L34.453,24.592 L29.838,24.592 L29.838,21.615 C29.838,20.276 30.201,19.347 32.138,19.347 L34.611,19.347 L34.611,15.188 L34.611,15.188 Z" id="Facebook"></path>
                            <path d="M28.5,55 L28.5,55 C43.1355459,55 55,43.1355459 55,28.5 C55,13.8644541 43.1355459,2 28.5,2 C13.8644541,2 2,13.8644541 2,28.5 C2,43.1355459 13.8644541,55 28.5,55 L28.5,55 Z M28.5,57 L28.5,57 C12.7598846,57 0,44.2401154 0,28.5 C0,12.7598846 12.7598846,0 28.5,0 C44.2401154,0 57,12.7598846 57,28.5 C57,44.2401154 44.2401154,57 28.5,57 L28.5,57 Z" id="Shape"></path>
                        </g>
                    </g>
                </g>
            </g>
        </g>
    </g>
</svg>