<?xml version="1.0" encoding="UTF-8" standalone="no"?>
<svg width="135px" height="135px" viewBox="0 0 135 135" version="1.1" xmlns="http://www.w3.org/2000/svg" xmlns:xlink="http://www.w3.org/1999/xlink" xmlns:sketch="http://www.bohemiancoding.com/sketch/ns">
    <!-- Generator: Sketch 3.3.3 (12081) - http://www.bohemiancoding.com/sketch -->
    <title>Shape + </title>
    <desc>Created with Sketch.</desc>
    <defs></defs>
    <g id="Page-1" stroke="none" stroke-width="1" fill="none" fill-rule="evenodd" sketch:type="MSPage">
        <g id="Home" sketch:type="MSArtboardGroup" transform="translate(-874.000000, -281.000000)" fill="#FFFFFF">
            <g id="HERO" sketch:type="MSLayerGroup" transform="translate(0.000000, 73.000000)">
                <g id="Shape-+-" transform="translate(874.000000, 208.000000)" sketch:type="MSShapeGroup">
                    <path d="M67.5,132 L67.5,132 C103.122366,132 132,103.122366 132,67.5 C132,31.8776336 103.122366,3 67.5,3 C31.8776336,3 3,31.8776336 3,67.5 C3,103.122366 31.8776336,132 67.5,132 L67.5,132 Z M67.5,135 L67.5,135 C30.2207794,135 0,104.779221 0,67.5 C0,30.2207794 30.2207794,0 67.5,0 C104.779221,0 135,30.2207794 135,67.5 C135,104.779221 104.779221,135 67.5,135 L67.5,135 Z" id="Shape"></path>
                    <path d="M84.6295127,79.0714179 C84.6295127,79.7689634 84.3504945,80.4386071 83.8482618,80.9408398 L79.7466944,85.0145054 C79.2444617,85.4888363 78.5469162,85.7399527 77.8493707,85.7399527 C77.1518252,85.7399527 76.4542798,85.4888363 75.952047,84.9866036 L70.2042723,79.210927 C69.7020396,78.7086943 69.4230214,78.0111488 69.4230214,77.3136033 C69.4230214,76.4765488 69.7578432,75.8348069 70.3437814,75.2767705 C71.2645414,76.1975306 72.0457924,77.2857015 73.4687851,77.2857015 C74.9475815,77.2857015 76.1473597,76.0859233 76.1473597,74.6071269 C76.1473597,73.1841341 75.0591888,72.4028832 74.1384288,71.4821232 C74.6964652,70.896185 75.338207,70.589265 76.1473597,70.589265 C76.8449052,70.589265 77.5424507,70.8682831 78.0446834,71.3705159 L83.8482618,77.1740942 C84.3504945,77.676327 84.6295127,78.3459706 84.6295127,79.0714179 L84.6295127,79.0714179 Z M65.014534,59.4006355 C65.014534,60.2376901 64.6797121,60.879432 64.0937739,61.4374683 C63.1730139,60.5167083 62.391763,59.4285374 60.9687702,59.4285374 C59.4899738,59.4285374 58.2901956,60.6283156 58.2901956,62.107112 C58.2901956,63.5301048 59.3783665,64.3113557 60.2991266,65.2321157 C59.7410902,65.8180539 59.0993484,66.0970721 58.2901956,66.0970721 C57.5926501,66.0970721 56.8951047,65.8459557 56.3928719,65.343723 L50.5892936,59.5401446 C50.0870608,59.0379119 49.8080426,58.3682682 49.8080426,57.642821 C49.8080426,56.9452755 50.0870608,56.2756318 50.5892936,55.7733991 L54.690861,51.6997335 C55.1930937,51.2254026 55.8906392,50.9463844 56.5881846,50.9463844 C57.2857301,50.9463844 57.9832756,51.2254026 58.4855083,51.7276353 L64.233283,57.5033119 C64.7355158,58.0055446 65.014534,58.7030901 65.014534,59.4006355 L65.014534,59.4006355 Z M89.986662,79.0714179 C89.986662,76.9229779 89.1775092,74.9140469 87.6429092,73.3794469 L81.8393308,67.5758685 C80.3326326,66.0691703 78.267898,65.2321157 76.1473597,65.2321157 C73.943116,65.2321157 71.8783814,66.1249739 70.3437814,67.6874758 L67.8884213,65.2321157 C69.4509232,63.6975157 70.3437814,61.6048792 70.3437814,59.4006355 C70.3437814,57.2800973 69.5346286,55.2432645 68.0279304,53.7365663 L62.2801557,47.9608898 C60.7734575,46.4262897 58.7366247,45.5892352 56.5881846,45.5892352 C54.4676464,45.5892352 52.4308136,46.3983879 50.9241154,47.9050861 L46.822548,51.9787517 C45.3158498,53.4575481 44.4508934,55.5222827 44.4508934,57.642821 C44.4508934,59.791261 45.2600461,61.800192 46.7946462,63.334792 L52.5982245,69.1383704 C54.1049228,70.6450686 56.1696574,71.4821232 58.2901956,71.4821232 C60.4944393,71.4821232 62.5591739,70.589265 64.0937739,69.0267631 L66.549134,71.4821232 C64.9866322,73.0167232 64.0937739,75.1093596 64.0937739,77.3136033 C64.0937739,79.4341416 64.9029267,81.4709744 66.4096249,82.9776726 L72.1573996,88.7533491 C73.6640979,90.2879492 75.7009306,91.1250037 77.8493707,91.1250037 C79.9699089,91.1250037 82.0067417,90.315851 83.51344,88.8091528 L87.6150073,84.7354872 C89.1217056,83.2566908 89.986662,81.1919562 89.986662,79.0714179 L89.986662,79.0714179 Z" id=""></path>
                </g>
            </g>
        </g>
    </g>
</svg>