<?xml version="1.0" encoding="UTF-8" standalone="no"?>
<svg width="20px" height="20px" viewBox="0 0 20 20" version="1.1" xmlns="http://www.w3.org/2000/svg" xmlns:xlink="http://www.w3.org/1999/xlink" xmlns:sketch="http://www.bohemiancoding.com/sketch/ns">
    <!-- Generator: Sketch 3.3.3 (12081) - http://www.bohemiancoding.com/sketch -->
    <title>Shape</title>
    <desc>Created with Sketch.</desc>
    <defs></defs>
    <g id="Page-1" stroke="none" stroke-width="1" fill="none" fill-rule="evenodd" sketch:type="MSPage">
        <g id="Home" sketch:type="MSArtboardGroup" transform="translate(-1170.000000, -25.000000)" stroke="#FFFFFF" fill="#FFFFFF">
            <g id="NAV" sketch:type="MSLayerGroup" transform="translate(-1.000000, -2.000000)">
                <g id="search" transform="translate(975.000000, 23.000000)" sketch:type="MSShapeGroup">
                    <path d="M208.25,5.00348214 C204.522312,5.00348214 201.5,8.02579464 201.5,11.7534821 C201.5,12.8931071 201.785188,13.9657946 202.284687,14.9079821 L197.591187,19.6003571 L197.595125,19.6037321 C197.228375,19.9642946 197,20.4637946 197,21.0189821 C197,22.1152946 197.88875,23.0040446 198.985062,23.0040446 C199.539125,23.0040446 200.039187,22.7756696 200.39975,22.4083571 L200.398625,22.4072321 L205.090438,17.7159821 C206.033187,18.2171696 207.107563,18.5034821 208.25,18.5034821 C211.977688,18.5034821 215,15.4811696 215,11.7534821 C215,8.02579464 211.977688,5.00348214 208.25,5.00348214 L208.25,5.00348214 Z M199.697188,21.7052321 C199.516063,21.8931071 199.265187,22.0106696 198.985062,22.0106696 C198.436625,22.0106696 197.99225,21.5668571 197.99225,21.0184196 C197.99225,20.7382946 198.110375,20.4879821 198.297687,20.3062946 L198.292625,20.3017946 L202.82975,15.7646696 C203.226313,16.2996071 203.698813,16.7721071 204.232625,17.1697946 L199.697188,21.7052321 L199.697188,21.7052321 Z M208.25,17.3790446 C205.143875,17.3790446 202.625,14.8596071 202.625,11.7540446 C202.625,8.64791964 205.143875,6.12904464 208.25,6.12904464 C211.355562,6.12904464 213.875,8.64791964 213.875,11.7540446 C213.875,14.8596071 211.355562,17.3790446 208.25,17.3790446 L208.25,17.3790446 Z" id="Shape"></path>
                </g>
            </g>
        </g>
    </g>
</svg>